<svg xmlns="http://www.w3.org/2000/svg" viewBox="0 0 720 540" fill="none">
  <rect width="720" height="540" rx="36" fill="#111111"/>
  <rect x="28" y="28" width="664" height="484" rx="28" fill="#F8F7F1"/>
  <circle cx="152" cy="148" r="64" fill="#FFD84D"/>
  <circle cx="152" cy="148" r="30" fill="#111111"/>
  <circle cx="548" cy="148" r="64" fill="#C8EF39"/>
  <circle cx="548" cy="148" r="30" fill="#111111"/>
  <rect x="186" y="116" width="348" height="112" rx="24" fill="#111111"/>
  <rect x="214" y="146" width="116" height="14" rx="7" fill="#FFD84D"/>
  <rect x="214" y="174" width="248" height="12" rx="6" fill="#F8F7F1" opacity="0.9"/>
  <rect x="214" y="194" width="196" height="12" rx="6" fill="#F8F7F1" opacity="0.65"/>
  <rect x="96" y="286" width="528" height="132" rx="28" fill="#111111"/>
  <rect x="126" y="320" width="176" height="14" rx="7" fill="#FFD84D"/>
  <rect x="126" y="348" width="320" height="12" rx="6" fill="#F8F7F1" opacity="0.9"/>
  <rect x="126" y="368" width="246" height="12" rx="6" fill="#F8F7F1" opacity="0.65"/>
  <rect x="518" y="318" width="54" height="54" rx="16" fill="#C8EF39"/>
  <path d="M544 332V358" stroke="#111111" stroke-width="8" stroke-linecap="round"/>
  <path d="M531 345H557" stroke="#111111" stroke-width="8" stroke-linecap="round"/>
</svg>
